<?xml version="1.0" standalone="no"?>
<!DOCTYPE svg PUBLIC "-//W3C//DTD SVG 20010904//EN"
 "http://www.w3.org/TR/2001/REC-SVG-20010904/DTD/svg10.dtd">
<svg version="1.0" xmlns="http://www.w3.org/2000/svg"
 width="500.000000pt" height="500.000000pt" viewBox="0 0 500.000000 500.000000"
 preserveAspectRatio="xMidYMid meet">

<g transform="translate(0.000000,500.000000) scale(0.100000,-0.100000)"
fill="#000000" stroke="none">
<path d="M0 2500 l0 -2500 2500 0 2500 0 0 2500 0 2500 -2500 0 -2500 0 0
-2500z m2433 1033 c-7 -2 -19 -2 -25 0 -7 3 -2 5 12 5 14 0 19 -2 13 -5z m65
-90 c-10 -2 -28 -2 -40 0 -13 2 -5 4 17 4 22 1 32 -1 23 -4z m180 0 c-16 -2
-40 -2 -55 0 -16 2 -3 4 27 4 30 0 43 -2 28 -4z m-255 -10 c-7 -2 -21 -2 -30
0 -10 3 -4 5 12 5 17 0 24 -2 18 -5z m334 1 c-3 -3 -12 -4 -19 -1 -8 3 -5 6 6
6 11 1 17 -2 13 -5z m-407 -14 c-34 -11 -60 -11 -35 0 11 5 29 8 40 8 16 0 15
-2 -5 -8z m475 0 c25 -11 -1 -11 -35 0 -20 6 -21 8 -5 8 11 0 29 -3 40 -8z
m-550 -20 c-27 -12 -43 -12 -25 0 8 5 22 9 30 9 10 0 8 -3 -5 -9z m630 -5 c39
-17 21 -18 -25 0 -19 7 -28 14 -20 14 8 0 29 -6 45 -14z m-676 -10 c-9 -8 -79
-35 -79 -30 0 3 15 11 33 19 32 15 54 20 46 11z m771 -30 c28 -14 50 -28 50
-30 0 -5 -99 42 -109 51 -12 11 15 1 59 -21z m-1065 -17 c-22 -17 -78 -70
-125 -117 -47 -48 -66 -64 -43 -36 56 68 185 186 203 185 3 -1 -13 -15 -35
-32z m1405 22 c0 -5 -7 -10 -16 -10 -8 0 -12 5 -9 10 3 6 10 10 16 10 5 0 9
-4 9 -10z m238 -13 c4 -22 -25 -34 -49 -19 -10 7 -27 12 -36 12 -34 -1 -103
-39 -153 -86 -27 -26 -50 -42 -50 -37 0 33 160 133 211 133 15 0 31 5 34 11
10 15 39 6 43 -14z m-1493 -33 c-131 -79 -234 -176 -310 -291 -64 -97 -66
-100 -49 -63 27 58 111 165 178 228 63 59 210 162 231 162 5 0 -17 -16 -50
-36z m1096 -21 c13 -16 12 -17 -3 -4 -17 13 -22 21 -14 21 2 0 10 -8 17 -17z
m69 -55 c0 -13 -5 -9 -31 19 l-24 26 27 -19 c15 -10 28 -22 28 -26z m-89 15
c13 -16 12 -17 -3 -4 -10 7 -18 15 -18 17 0 8 8 3 21 -13z m55 -45 l29 -33
-32 29 c-31 28 -38 36 -30 36 2 0 16 -15 33 -32z m332 9 c4 -21 -21 -22 -38
-2 -14 17 -40 20 -40 6 0 -6 -9 -9 -19 -8 -15 1 -17 4 -9 14 16 20 102 12 106
-10z m-248 -30 c0 -6 -3 -7 -7 -4 -3 4 -15 -1 -26 -10 -19 -17 -20 -17 -8 4 6
12 8 30 4 40 -6 17 -5 17 15 -1 12 -11 22 -24 22 -29z m-1716 -2 c3 -9 0 -15
-9 -15 -8 0 -15 7 -15 15 0 8 4 15 9 15 5 0 11 -7 15 -15z m-219 -5 c3 -5 20
-10 36 -10 29 0 99 -24 99 -34 0 -3 -16 2 -35 10 -39 16 -95 19 -95 4 0 -13
-37 -13 -45 0 -4 6 -4 17 -1 25 6 17 32 20 41 5z m1979 -36 c3 -8 11 -12 17
-8 7 4 9 3 5 -4 -3 -5 6 -25 21 -44 26 -32 26 -32 2 -10 -14 12 -29 19 -32 15
-4 -3 -7 2 -7 12 0 10 -7 27 -17 37 -9 10 -11 18 -6 18 6 0 14 -7 17 -16z
m-34 -29 c13 -14 21 -25 18 -25 -2 0 -15 11 -28 25 -13 14 -21 25 -18 25 2 0
15 -11 28 -25z m-1706 -64 l40 -41 38 60 c20 33 40 60 43 60 2 0 -12 -26 -32
-57 -20 -31 -51 -88 -70 -127 -19 -39 -31 -60 -27 -46 4 14 15 42 25 63 11 20
15 37 9 37 -6 0 -13 8 -16 18 -4 9 -29 39 -58 65 -28 27 -37 40 -21 29 17 -11
48 -39 69 -61z m-127 13 c-3 -3 -12 -4 -19 -1 -8 3 -5 6 6 6 11 1 17 -2 13 -5z
m-92 -24 c0 -8 -8 -16 -17 -18 -13 -2 -18 3 -18 18 0 15 5 20 18 18 9 -2 17
-10 17 -18z m142 14 c-3 -3 -12 -4 -19 -1 -8 3 -5 6 6 6 11 1 17 -2 13 -5z
m1897 -20 c3 -8 2 -12 -4 -9 -6 3 -10 10 -10 16 0 14 7 11 14 -7z m36 -65 c12
-23 20 -43 18 -45 -3 -2 -14 17 -26 41 -27 56 -20 60 8 4z m343 27 c6 -16 -2
-28 -14 -20 -12 7 -11 34 0 34 5 0 11 -6 14 -14z m-893 -63 c1 -74 68 -396 81
-387 5 3 9 14 9 25 0 29 29 151 40 169 17 27 19 5 5 -43 -16 -54 -8 -82 52
-175 34 -54 38 -77 8 -52 -8 7 -29 38 -47 69 -30 52 -33 54 -39 31 -4 -14 -7
-49 -8 -77 -2 -104 -26 -54 -88 187 -28 109 -42 260 -24 260 6 0 11 -3 11 -7z
m665 -43 c-21 -22 -35 -40 -30 -40 6 0 2 -5 -8 -11 -12 -7 -16 -18 -12 -37 3
-15 -6 2 -19 38 -31 79 -32 85 -5 41 l21 -34 41 41 c23 23 44 42 46 42 3 0
-13 -18 -34 -40z m-1884 -17 c-11 -21 -20 -35 -21 -31 0 12 33 78 38 74 2 -2
-6 -21 -17 -43z m1063 -5 c3 -13 10 -59 16 -103 15 -101 51 -265 60 -265 3 0
14 40 23 88 18 86 31 122 41 111 3 -2 0 -24 -6 -47 -14 -54 -1 -101 47 -172
19 -29 35 -57 35 -63 0 -19 -47 33 -72 79 -12 24 -26 44 -29 44 -8 0 -19 -63
-19 -107 0 -53 -16 -38 -39 36 l-22 69 -28 -29 c-31 -31 -64 -30 -84 2 -17 27
-24 24 -31 -15 -8 -42 -33 -67 -47 -45 -17 28 -10 115 12 143 21 27 53 34 64
15 4 -6 1 -10 -6 -8 -29 3 -37 -2 -48 -32 -13 -38 -15 -92 -2 -85 4 3 11 23
15 45 8 51 21 59 40 23 31 -59 64 -63 91 -11 14 25 13 37 -6 116 -25 109 -37
233 -21 233 7 0 14 -10 16 -22z m1030 -3 c3 -8 1 -15 -3 -15 -5 0 -11 7 -15
15 -3 8 -1 15 3 15 5 0 11 -7 15 -15z m-2210 -59 c-3 -15 -8 -25 -11 -23 -2 3
-1 17 3 31 3 15 8 25 11 23 2 -3 1 -17 -3 -31z m87 -7 c-5 -13 -10 -19 -10
-12 -1 15 10 45 15 40 3 -2 0 -15 -5 -28z m182 -64 c15 -44 48 -156 73 -250
73 -276 95 -346 135 -430 45 -96 63 -119 84 -112 13 6 15 49 15 349 0 351 5
448 23 448 13 0 -1 -787 -14 -812 -15 -28 -45 -21 -77 18 -63 76 -114 211
-188 494 -25 96 -57 209 -71 250 -45 140 -44 132 -25 128 11 -2 27 -30 45 -83z
m667 -18 c0 -97 22 -191 97 -419 3 -10 1 -18 -5 -18 -12 0 -43 79 -68 174 -19
70 -34 78 -34 18 0 -71 -41 -116 -60 -67 l-10 27 -21 -26 c-26 -33 -71 -35
-93 -4 -18 26 -21 24 -33 -22 -7 -25 -15 -35 -29 -35 -16 0 -19 8 -22 52 -3
59 16 108 48 118 22 7 40 0 40 -16 0 -6 -9 -7 -20 -4 -17 5 -23 0 -35 -29 -17
-40 -21 -111 -5 -86 5 8 12 32 15 52 9 52 20 55 42 11 13 -29 24 -38 43 -38
31 0 65 48 74 105 4 25 17 52 32 67 26 25 26 29 20 108 -4 44 -4 84 0 88 15
15 24 -7 24 -56z m-953 31 c-3 -8 -6 -5 -6 6 -1 11 2 17 5 13 3 -3 4 -12 1
-19z m1980 0 c-3 -8 -6 -5 -6 6 -1 11 2 17 5 13 3 -3 4 -12 1 -19z m-405 -53
c2 -36 7 -65 13 -66 5 0 19 27 30 60 25 74 32 81 45 45 32 -88 55 -95 97 -29
15 25 31 45 35 45 13 0 -5 -39 -34 -74 -37 -45 -63 -44 -95 3 l-23 33 -10 -26
c-5 -15 -10 -33 -10 -41 0 -7 -9 -23 -19 -36 -18 -22 -21 -23 -36 -8 -19 19
-31 94 -21 133 11 46 25 27 28 -39z m-1495 23 c-3 -8 -6 -5 -6 6 -1 11 2 17 5
13 3 -3 4 -12 1 -19z m1910 -20 c-3 -7 -5 -2 -5 12 0 14 2 19 5 13 2 -7 2 -19
0 -25z m-2000 -10 c-3 -7 -5 -2 -5 12 0 14 2 19 5 13 2 -7 2 -19 0 -25z m80
-10 c-3 -8 -6 -5 -6 6 -1 11 2 17 5 13 3 -3 4 -12 1 -19z m-392 -14 c70 -22
121 -59 145 -108 25 -53 25 -58 -2 -54 -14 2 -22 9 -20 18 2 8 0 12 -4 7 -10
-10 -44 22 -44 42 0 13 -2 14 -9 2 -8 -13 -12 -13 -28 0 -10 8 -22 20 -26 27
-6 9 -13 9 -28 2 -22 -12 -52 5 -103 59 l-30 31 50 -6 c27 -3 72 -12 99 -20z
m244 -31 c32 -39 48 -91 36 -120 -6 -17 -7 -17 -21 1 -8 11 -11 29 -8 39 4 12
2 17 -4 13 -14 -8 -25 28 -17 57 5 17 4 19 -5 7 -9 -13 -13 -12 -30 9 -11 13
-20 30 -20 37 0 22 32 2 69 -43z m2078 -10 c-3 -10 -5 -2 -5 17 0 19 2 27 5
18 2 -10 2 -26 0 -35z m-2020 -30 c-2 -16 -4 -5 -4 22 0 28 2 40 4 28 2 -13 2
-35 0 -50z m80 25 c-3 -7 -5 -2 -5 12 0 14 2 19 5 13 2 -7 2 -19 0 -25z m-10
-100 c-2 -13 -4 -3 -4 22 0 25 2 35 4 23 2 -13 2 -33 0 -45z m-50 -85 c-2 -27
-3 -5 -3 47 0 52 1 74 3 48 2 -27 2 -69 0 -95z m-20 10 c-2 -21 -4 -6 -4 32 0
39 2 55 4 38 2 -18 2 -50 0 -70z m2020 -35 c-2 -13 -4 -3 -4 22 0 25 2 35 4
23 2 -13 2 -33 0 -45z m-1950 0 c-2 -13 -4 -5 -4 17 -1 22 1 32 4 23 2 -10 2
-28 0 -40z m-202 -42 c17 -12 17 -13 -8 -20 -14 -3 -33 -3 -43 1 -12 4 -15 3
-10 -5 5 -8 -1 -12 -16 -12 -13 0 -29 -5 -35 -11 -6 -6 -26 -13 -44 -15 -31
-4 -32 -3 -14 16 24 26 94 60 126 60 14 0 33 -6 44 -14z m2142 -18 c-3 -7 -5
-2 -5 12 0 14 2 19 5 13 2 -7 2 -19 0 -25z m-1980 -28 c-3 -11 -1 -23 4 -26 5
-3 9 -14 9 -25 0 -13 4 -18 12 -13 6 4 8 3 4 -4 -3 -6 -3 -13 2 -16 4 -2 14
-28 22 -55 8 -30 19 -51 27 -51 8 0 12 -4 9 -9 -4 -5 -2 -11 3 -13 4 -1 12
-14 16 -27 6 -20 4 -23 -10 -17 -13 5 -11 -4 11 -41 42 -74 119 -166 197 -239
40 -37 66 -64 60 -60 -7 4 -13 3 -13 -2 0 -9 58 -51 140 -101 19 -11 31 -21
25 -21 -5 0 -41 20 -78 45 -38 25 -74 42 -80 38 -7 -3 -9 -3 -5 2 4 4 3 14 -3
22 -9 10 -20 -3 -50 -66 -36 -73 -97 -141 -127 -141 -5 0 -16 -10 -24 -22 -10
-15 -20 -19 -32 -15 -26 10 -15 42 14 43 14 1 32 2 41 3 23 2 77 59 110 116
36 62 38 86 7 59 l-23 -19 23 26 c12 14 22 31 22 37 0 7 5 12 11 12 5 0 7 5 4
10 -4 6 -12 7 -18 4 -7 -4 -9 -4 -5 1 11 12 -11 35 -27 29 -7 -3 -16 -1 -20 5
-4 7 1 8 12 4 16 -6 16 -5 4 10 -7 9 -16 15 -20 12 -4 -2 -20 8 -35 22 -15 14
-29 23 -30 22 -2 -2 -14 -29 -28 -59 -29 -66 -78 -125 -122 -147 -17 -9 -36
-23 -42 -31 -14 -20 -47 -8 -42 15 2 13 13 18 40 18 54 0 105 46 150 136 34
66 36 74 20 81 -9 3 -11 7 -4 7 18 1 15 19 -12 54 -39 53 -97 168 -90 179 4 7
2 8 -4 4 -6 -3 -16 3 -23 16 -16 29 -50 188 -43 199 10 16 16 9 11 -11z m50
-2 c-3 -8 -6 -5 -6 6 -1 11 2 17 5 13 3 -3 4 -12 1 -19z m1903 -70 c-22 -74
-68 -172 -101 -220 -19 -25 -26 -64 -11 -55 4 3 7 -8 8 -25 l1 -29 -16 25 -17
25 -28 -27 c-19 -18 -15 -9 13 28 56 74 123 210 146 293 10 37 20 65 23 63 2
-3 -6 -38 -18 -78z m-65 -25 c8 -37 -9 -99 -29 -106 -11 -4 -13 5 -11 41 1 26
4 54 6 62 2 8 -1 14 -6 13 -6 -1 -10 11 -9 25 1 15 3 36 4 47 1 15 5 12 19
-15 10 -19 22 -50 26 -67z m-2069 1 c-14 -15 -26 -31 -26 -35 0 -5 -3 -8 -7
-8 -20 3 -57 -3 -45 -8 6 -2 12 -11 12 -19 0 -9 -4 -12 -10 -9 -5 3 -10 -1
-10 -9 0 -10 -9 -16 -22 -16 -13 0 -30 -5 -38 -10 -12 -8 -9 -10 13 -10 40 0
33 -31 -10 -44 -13 -4 -23 -13 -23 -20 0 -6 -14 -20 -32 -30 l-31 -19 6 32
c25 123 125 230 216 231 l34 0 -27 -26z m2503 -84 c-72 -89 -169 -140 -243
-126 -19 4 -40 13 -47 22 -7 8 -8 14 -3 13 26 -5 54 2 49 12 -5 7 7 8 37 4 28
-4 38 -2 29 4 -16 10 -6 31 15 31 8 0 13 4 9 9 -3 5 0 13 6 17 8 4 9 3 5 -4
-4 -7 -2 -12 4 -12 6 0 9 -4 6 -9 -4 -5 2 -7 13 -4 13 3 17 11 14 24 -4 14 0
19 15 19 11 0 22 4 24 9 2 6 15 11 30 13 15 2 30 7 34 11 4 4 14 7 21 7 9 0 2
-15 -18 -40z m-2406 -70 c-10 -11 -27 -20 -38 -20 -16 0 -17 -2 -5 -10 13 -8
12 -12 -7 -29 -11 -11 -24 -17 -28 -13 -4 4 -4 -3 -1 -15 5 -16 1 -26 -16 -37
-33 -24 -34 -4 -3 60 20 40 36 60 59 70 46 20 59 18 39 -6z m2144 -146 c21 -2
33 1 33 9 0 8 3 8 9 -1 4 -8 11 -13 15 -13 3 1 18 1 34 0 27 -1 26 -1 -8 -16
-64 -28 -188 -1 -166 36 5 8 13 8 29 -1 12 -6 36 -12 54 -14z m-2117 -19 c0
-7 8 -19 18 -25 13 -8 11 -9 -13 -4 -36 8 -50 19 -41 33 10 16 36 13 36 -4z
m1820 2 c0 -2 -12 -14 -27 -28 l-28 -24 24 28 c23 25 31 32 31 24z m97 -19
c-3 -8 -6 -5 -6 6 -1 11 2 17 5 13 3 -3 4 -12 1 -19z m-1720 -24 c-3 -3 -12
-4 -19 -1 -8 3 -5 6 6 6 11 1 17 -2 13 -5z m1730 -16 c-3 -8 -6 -5 -6 6 -1 11
2 17 5 13 3 -3 4 -12 1 -19z m-1799 5 c-10 -2 -26 -2 -35 0 -10 3 -2 5 17 5
19 0 27 -2 18 -5z m149 -90 c-3 -10 -5 -4 -5 12 0 17 2 24 5 18 2 -7 2 -21 0
-30z m1528 -24 c11 -17 -1 -21 -15 -4 -8 9 -8 15 -2 15 6 0 14 -5 17 -11z
m-1549 -46 c-10 -10 -19 5 -10 18 6 11 8 11 12 0 2 -7 1 -15 -2 -18z m284 -39
c0 -7 -58 25 -65 36 -3 5 10 1 29 -11 20 -12 36 -23 36 -25z m1374 11 c6 -17
4 -18 -18 -9 -20 8 -21 24 -2 24 8 0 16 -7 20 -15z m-1594 1 c0 -2 -8 -10 -17
-17 -16 -13 -17 -12 -4 4 13 16 21 21 21 13z m-45 -36 c-3 -5 -12 -10 -18 -10
-7 0 -6 4 3 10 19 12 23 12 15 0z m-100 -20 c0 -8 -8 -16 -17 -18 -13 -2 -18
3 -18 18 0 15 5 20 18 18 9 -2 17 -10 17 -18z m464 -36 c14 -12 -19 -1 -35 12
-18 14 -18 14 6 3 14 -6 27 -13 29 -15z m51 16 c8 -5 11 -10 5 -10 -5 0 -17 5
-25 10 -8 5 -10 10 -5 10 6 0 17 -5 25 -10z m790 0 c-8 -5 -19 -10 -25 -10 -5
0 -3 5 5 10 8 5 20 10 25 10 6 0 3 -5 -5 -10z m-1070 -35 c0 -8 -7 -15 -15
-15 -26 0 -18 20 13 29 1 1 2 -6 2 -14z m270 5 c8 -5 11 -10 5 -10 -5 0 -17 5
-25 10 -8 5 -10 10 -5 10 6 0 17 -5 25 -10z m67 -26 c-3 -3 -12 -4 -19 -1 -8
3 -5 6 6 6 11 1 17 -2 13 -5z m40 -10 c-3 -3 -12 -4 -19 -1 -8 3 -5 6 6 6 11
1 17 -2 13 -5z m40 -10 c-3 -3 -12 -4 -19 -1 -8 3 -5 6 6 6 11 1 17 -2 13 -5z
m46 -11 c-7 -2 -19 -2 -25 0 -7 3 -2 5 12 5 14 0 19 -2 13 -5z m350 0 c-7 -2
-19 -2 -25 0 -7 3 -2 5 12 5 14 0 19 -2 13 -5z m-275 -10 c-10 -2 -26 -2 -35
0 -10 3 -2 5 17 5 19 0 27 -2 18 -5z m195 0 c-7 -2 -19 -2 -25 0 -7 3 -2 5 12
5 14 0 19 -2 13 -5z m-1487 -439 c-2 -46 -6 -87 -9 -91 -4 -3 -7 -1 -7 6 0 7
-5 9 -11 5 -8 -5 -8 -1 0 14 17 32 13 70 -9 92 -11 11 -16 20 -12 20 4 0 13
-5 20 -12 9 -9 12 -2 12 33 0 29 3 39 9 30 5 -7 8 -51 7 -97z m226 39 c4 -85
-1 -133 -13 -133 -5 0 -9 45 -9 100 0 112 17 137 22 33z m160 0 c4 -85 -1
-133 -13 -133 -5 0 -9 45 -9 100 0 112 17 137 22 33z m1078 -39 c0 -54 -4 -83
-10 -79 -5 3 -10 44 -10 91 0 54 4 83 10 79 6 -3 10 -44 10 -91z m1855 6 c0
-61 4 -83 15 -90 8 -5 10 -10 4 -10 -22 0 -32 25 -34 80 -2 80 -1 100 8 100 4
0 7 -36 7 -80z m-3714 -23 c10 -23 22 -41 27 -40 6 1 8 -7 5 -17 -3 -11 -9
-20 -12 -20 -7 0 -61 122 -61 137 0 16 26 -21 41 -60z m70 36 c-12 -20 -14
-14 -5 12 4 9 9 14 11 11 3 -2 0 -13 -6 -23z m79 23 c0 -2 -7 -7 -16 -10 -8
-3 -12 -2 -9 4 6 10 25 14 25 6z m70 -77 c0 -48 -3 -57 -15 -53 -10 4 -12 11
-7 18 9 12 8 75 -2 102 -5 14 -4 15 9 4 10 -8 15 -31 15 -71z m86 65 c-19 -19
-21 -87 -3 -102 6 -5 21 -12 32 -15 17 -4 16 -5 -4 -6 -36 -2 -61 26 -61 67 0
34 23 72 42 72 5 0 2 -7 -6 -16z m174 12 c0 -2 -7 -7 -16 -10 -8 -3 -12 -2 -9
4 6 10 25 14 25 6z m70 -77 c0 -47 -3 -57 -15 -53 -10 4 -12 11 -6 22 10 19 7
84 -5 104 -6 10 -4 9 9 -1 12 -10 17 -29 17 -72z m382 24 c3 -50 6 -59 28 -70
24 -12 24 -13 3 -13 -32 0 -53 37 -53 92 0 68 18 60 22 -9z m98 -13 c0 -38 -4
-70 -9 -70 -14 0 -16 14 -13 80 5 83 22 76 22 -10z m182 58 c-7 -7 -12 -31
-12 -54 0 -33 5 -47 22 -58 12 -9 18 -16 12 -16 -23 0 -54 42 -54 72 0 28 23
68 39 68 3 0 0 -5 -7 -12z m78 -7 c13 -25 13 -51 -1 -51 -5 0 -7 5 -4 10 4 6
-1 22 -9 35 -9 14 -12 25 -7 25 6 0 15 -9 21 -19z m89 -45 c34 -69 35 -76 22
-76 -8 0 -61 112 -61 131 0 20 10 6 39 -55z m141 44 c-19 -36 -8 -93 20 -107
18 -9 20 -13 8 -13 -49 0 -77 83 -41 122 21 24 26 23 13 -2z m160 -50 c0 -40
-4 -70 -10 -70 -6 0 -10 30 -10 70 0 40 4 70 10 70 6 0 10 -30 10 -70z m79 61
c17 -11 26 -93 12 -117 -8 -15 -10 -9 -11 36 0 58 -6 74 -30 83 -13 5 -13 5 0
6 8 0 21 -3 29 -8z m301 -67 c0 -36 -4 -64 -10 -64 -6 0 -10 30 -10 71 0 44 4
68 10 64 6 -3 10 -35 10 -71z m76 65 c4 -8 9 -8 17 0 6 6 15 11 21 11 5 0 2
-6 -8 -13 -12 -9 -18 -26 -18 -58 0 -25 -4 -52 -9 -60 -6 -9 -9 4 -9 39 0 29
-5 62 -10 73 -11 20 3 28 16 8z m90 -64 l2 -70 -8 64 c-4 35 -13 67 -21 73
-11 7 -9 8 6 6 18 -3 20 -11 21 -73z m94 71 c0 -2 -7 -7 -16 -10 -8 -3 -12 -2
-9 4 6 10 25 14 25 6z m70 -78 c0 -40 -4 -58 -11 -56 -7 2 -12 30 -13 70 -1
52 2 64 12 56 7 -6 12 -35 12 -70z m76 55 c-3 -8 -6 -37 -6 -64 0 -27 -4 -49
-10 -49 -6 0 -10 30 -10 70 0 59 2 68 16 63 8 -3 13 -12 10 -20z m88 -15 c6
-24 5 -49 -1 -70 -11 -32 -11 -31 -12 24 -1 39 -6 62 -18 73 -16 16 -15 17 3
13 12 -2 22 -16 28 -40z m86 38 c0 -2 -7 -7 -16 -10 -8 -3 -12 -2 -9 4 6 10
25 14 25 6z m70 -77 c0 -47 -3 -57 -15 -53 -10 4 -12 11 -6 22 9 19 6 86 -6
105 -4 8 -1 7 10 -2 12 -10 17 -29 17 -72z m87 63 c-34 -37 -15 -112 28 -112
29 0 47 29 45 73 -3 47 -1 57 10 57 14 0 13 -143 -2 -175 -6 -14 -15 -25 -20
-25 -5 0 -4 9 2 19 5 11 10 30 10 42 0 18 -3 20 -12 11 -33 -33 -98 5 -98 56
0 30 25 72 42 72 6 0 4 -8 -5 -18z m168 8 c-12 -19 -15 -82 -5 -101 6 -10 18
-19 28 -20 11 0 13 -2 4 -6 -20 -8 -62 37 -62 67 0 14 7 36 16 48 15 21 31 32
19 12z m95 -46 c0 -27 -15 -14 -27 24 l-11 37 19 -24 c10 -13 19 -29 19 -37z
m62 46 c6 -20 -4 -130 -13 -130 -5 0 -9 32 -9 70 0 39 4 70 9 70 5 0 11 -4 13
-10z m81 -1 c13 -13 11 -129 -3 -129 -5 0 -10 32 -12 70 -2 39 -2 70 0 70 2 0
8 -5 15 -11z m91 -5 c10 -26 7 -124 -4 -124 -6 0 -10 28 -10 64 0 42 -4 66
-12 69 -8 4 -7 6 3 6 9 1 20 -6 23 -15z m87 2 c-7 -8 -11 -34 -9 -58 2 -34 8
-45 28 -55 14 -7 18 -13 10 -13 -9 0 -26 7 -38 16 -27 18 -31 84 -6 108 19 20
31 21 15 2z m89 -33 c0 -13 -5 -23 -11 -23 -5 0 -7 5 -4 10 4 6 -1 22 -10 36
-16 24 -15 24 5 12 11 -7 20 -23 20 -35z m70 -23 c0 -40 -4 -70 -10 -70 -6 0
-10 30 -10 70 0 40 4 70 10 70 6 0 10 -30 10 -70z m74 64 c12 -5 16 -21 16
-73 0 -46 -3 -62 -10 -51 -5 8 -10 38 -10 67 0 32 -5 53 -12 56 -7 3 -10 6 -6
6 3 1 13 -2 22 -5z m-2938 -23 c-20 -22 -13 -42 23 -75 23 -21 27 -36 11 -36
-6 0 -19 14 -28 30 -9 17 -25 33 -35 36 -17 5 -16 9 9 35 31 32 47 40 20 10z
m161 1 c-23 -25 -22 -32 14 -75 40 -49 22 -48 -24 2 l-35 38 26 27 c30 30 44
36 19 8z m778 -19 c4 -14 2 -23 -4 -23 -6 0 -11 6 -11 14 0 8 -3 23 -6 33 -5
12 -4 15 3 8 6 -5 14 -20 18 -32z m-1473 -15 c-20 -20 -14 -58 11 -68 21 -8
21 -9 1 -9 -26 -1 -44 17 -44 44 0 22 17 45 34 45 6 0 5 -5 -2 -12z m330 0
c-18 -18 -15 -55 6 -67 14 -9 14 -10 2 -11 -22 0 -40 20 -40 45 0 22 17 45 34
45 6 0 5 -5 -2 -12z m1842 4 c-6 -4 -14 -16 -18 -28 -7 -23 6 -39 39 -47 16
-4 15 -5 -6 -6 -27 -1 -41 10 -52 41 -6 18 16 48 36 48 9 0 9 -2 1 -8z m318
-4 c-18 -18 -15 -55 6 -67 14 -9 14 -10 2 -11 -22 0 -40 20 -40 45 0 22 17 45
34 45 6 0 5 -5 -2 -12z m-1037 -68 c-3 -5 -12 -10 -18 -10 -7 0 -6 4 3 10 19
12 23 12 15 0z m300 0 c-3 -5 -12 -10 -18 -10 -7 0 -6 4 3 10 19 12 23 12 15
0z m929 -70 c10 0 17 -3 13 -6 -10 -10 -57 5 -57 18 0 9 3 9 12 0 7 -7 21 -12
32 -12z"/>
<path d="M2462 2545 c-14 -30 -16 -114 -3 -133 10 -17 19 12 28 98 6 64 -5 79
-25 35z"/>
<path d="M1216 2637 c3 -10 9 -15 12 -12 3 3 0 11 -7 18 -10 9 -11 8 -5 -6z"/>
<path d="M1795 1840 c10 -11 20 -20 23 -20 3 0 -3 9 -13 20 -10 11 -20 20 -23
20 -3 0 3 -9 13 -20z"/>
</g>
</svg>
